<svg width="512" height="512" viewBox="0 0 512 512" fill="none" xmlns="http://www.w3.org/2000/svg">
<path d="M334 372V418.333H195V372H334ZM194.667 372H148.333V325.667H194.667V372ZM148.333 325.667H102V186.667H148.333V325.667ZM428.5 325.667H382.167V186.667H428.5V325.667ZM194.667 186.667H148.333V140.333H194.667V186.667ZM333.667 140.333H194.667V94H333.667V140.333Z" fill="black"/>
<path d="M84.649 189.957C85.467 189.053 85.646 188.506 86.915 186.431M84.751 189.982C85.578 188.838 86.492 187.582 86.997 186.708M84.576 193.703C85.511 191.54 86.837 190.442 88.895 187.094M84.652 193.421C85.801 191.958 86.736 190.171 89.203 186.72M84.385 196.818C86.643 193.999 89.463 190.516 92.019 186.123M84.943 196.997C87.302 193.109 89.827 189.514 91.709 186.011M85.047 201.204C86.98 197.654 88.758 195.609 94.891 187.026M84.897 200.976C87.078 197.532 89.124 193.633 93.972 186.198M85.42 204.51C87.671 198.162 92.129 194.196 95.514 186.821M84.606 204.077C86.736 200.705 89.934 196.961 96.649 186.443M84.555 207.185C89.189 200.961 95.546 192.211 98.458 185.508M84.827 207.944C89.166 202.094 92.887 194.934 98.881 186.246M84.249 212.084C89.65 205.268 93.611 197.832 100.802 185.705M84.439 211.532C87.847 206.672 91.322 200.874 100.752 186.469M85.076 214.504C91.22 204.271 97.553 195.115 103.428 186.374M84.606 214.477C91.204 204.871 96.698 196.054 103.049 186.482M131.697 144.235C132.384 142.866 133.272 141.734 133.944 140.843M131.595 144.184C132.456 143.222 133.069 142.091 133.904 140.997M84.303 218.242C92.799 207.226 99.397 193.783 106.989 185.492M85.27 218.204C90.125 210.271 94.917 203.232 106.347 186.533M131.716 147.825C132.667 145.94 134.563 143.955 136.938 140.588M131.676 147.892C133.353 144.957 135.16 142.27 136.696 140.132M85.444 221.398C94.43 207.561 103.188 194.325 108.829 185.765M84.597 220.935C93.591 207.969 102.809 194.654 108.186 186.07M131.559 151.099C134.214 147.686 136.214 144.108 139.322 140.727M131.592 151.627C133.932 147.64 136.528 143.479 138.977 140.347M84.757 225.849C94.177 210.004 102.889 196.288 111.186 185.892M84.493 224.924C94.431 210.84 104.343 195.345 110.58 187.065M130.932 155.708C134.338 151.92 136.652 147.066 140.324 140.074M131.518 154.907C134.955 149.918 138.077 145.303 140.75 140.529M84.038 228.181C91.62 218.004 100.992 206.462 112.666 186.093M85.34 228.476C91.301 219.345 97.183 209.554 112.472 187.267M132.711 158.625C136.762 151.373 139.172 146.401 142.984 140.056M131.843 157.768C136.753 151.124 140.444 144.155 143.245 139.766M85.135 231.671C90.564 223.341 98.186 212.405 114.743 185.773M85.346 231.703C94.01 219.44 102.467 205.949 115.627 186.164M131.084 160.417C138.152 152.066 142.508 145.608 146.318 139.995M132.305 160.99C135.043 156.193 138.232 152.249 145.624 140.597M84.542 236.02C91.905 226.313 99.224 214.22 117.758 185.602M84.832 235.106C92.517 224.462 98.95 214.303 117.944 186.669M131.121 165.721C138.613 154.5 144.323 146.563 147.839 141.623M131.503 165.016C135.482 159.578 139.178 154.787 147.797 140.891M85.235 238.598C93.715 226.178 102.463 211.787 118.863 186.516M85.151 239.43C93.148 226.206 102.184 213.557 120.08 186.816M132.644 168.43C138.112 160.672 142.876 150.311 150.286 141.958M131.502 168.555C135.993 162.525 140.373 155.887 150.057 141.206M178.268 98.55C178.845 97.586 179.722 96.755 181.441 94.209M178.429 98.607C179.487 97.083 180.609 95.396 181.212 94.434M84.985 242.306C93.766 230.715 101.976 216.815 122.376 185.911M85.008 243.001C94.795 226.825 105.419 210.753 122.876 185.776M132.442 171.109C137.226 166.059 140.353 158 153.818 140.253M132.207 171.543C137.942 162.657 143.767 153.844 152.9 140.853M178.634 101.345C180.221 99.136 181.305 97.367 183.518 94.325M178.922 101.217C180.131 99.349 181.351 97.578 183.43 94.802M84.808 247.319C92.743 234.005 100.738 221.886 123.935 186.749M84.704 246.758C100.396 224.067 115.023 201.554 124.835 186.428M131.921 174.588C137.036 166.135 144.007 157.928 154.328 140.53M132.147 175.186C139.034 165.691 145.34 154.831 155.228 140.662M178.941 105.324C181.35 102.068 183.8 97.732 185.822 94.539M179.11 104.707C181.273 101.524 182.808 98.518 185.779 94.935M84.779 249.563C98.372 228.066 113.034 206.575 126.08 186.175M84.635 249.493C94.373 235.673 103.835 221.668 127.143 186.174M130.784 178.34C137.552 170.784 144.259 162.144 156.947 139.94M131.372 179.183C139.139 168.968 146.088 158.495 157.5 140.45M179.055 108.144C181.434 104.127 185.355 98.727 187.913 94.468M179.123 108.536C182.01 103.812 185.243 99.136 188.214 94.397M84.234 254.475C98.335 232.674 112.377 212.183 129.019 187.317M84.371 253.549C94.838 239.183 104.417 223.573 129.132 186.99M132.62 183.029C137.742 174.188 143.665 164.354 159.502 139.938M132.017 182.379C138.371 172.508 145.243 163.082 160.247 140.445M178.991 112.05C180.614 108.052 183.333 103.647 189.711 94.378M179.277 112.321C182.132 107.749 184.8 102.998 190.473 94.29M84.957 257.778C102.476 228.76 120.97 201.682 132.143 186.842M84.252 256.956C101.259 232.847 117.373 207.763 131.989 186.609M131.816 186.173C137.695 177.536 143.267 168.009 162.543 140.039M131.841 186.791C141.313 172.145 150.292 157.423 161.969 140.52M178.094 115.257C182.559 111.768 184.702 106.778 193.122 94.816M178.578 115.82C183.462 109.18 186.782 102.81 192.789 95.048M84.164 259.341C95.854 243.536 108.791 226.037 132.442 189.669M84.674 259.457C102.194 233.623 120.127 208.032 131.548 189.715M134.057 186.671C145.31 170.681 155.735 153.288 164.309 141.072M133.916 186.141C142.151 174.397 150.086 163.337 163.939 140.859M179.24 118.69C184.603 110.941 189.626 101.631 194.021 95.41M178.397 118.743C182.266 113.98 185.185 109.289 195.279 94.689M84.46 263.078C100.178 242.104 115.134 220.135 131.97 193.264M85.02 263.353C95.564 248.293 105.766 232.497 131.894 193.173M135.602 185.989C147.004 170.022 156.74 153.633 166.886 140.18M135.86 187.037C147.333 170.205 157.859 152.902 167.071 140.121M178.649 122.506C185.232 112.504 191.816 101.775 197.922 93.503M178.73 122.8C182.907 116.196 187.512 108.485 197.912 94.474M85.843 266.319C103.107 238.464 121.858 211.966 130.838 197.254M84.879 267.332C98.141 248.773 109.892 229.469 131.158 196.836M139.182 187.457C145.651 176.069 150.985 167.563 170.074 140.914M138.039 186.667C146.677 174.167 156.492 160.426 168.915 140.727M177.91 125.487C186.367 114.691 194.922 101.548 200.433 93.87M178.703 126.337C185.029 117.283 190.136 109.297 200.096 95.038M85.48 270.607C103.892 243.649 121.782 216.999 131.995 201.598M85.01 270.546C102.971 242.761 121.911 215.058 131.646 201.101M139.958 185.611C150.455 171.2 161.554 156.548 171.641 140.596M141.238 186.43C151.57 170.198 162.351 154.448 171.538 140.864M178.749 129.004C183.029 120.763 190.01 113.351 201.654 94.168M178.628 129.739C184.177 121.51 190.014 113.158 201.803 94.74M84.365 273.962C95.042 258.043 105.925 241.621 131.83 203.908M85.365 273.987C101.963 248.062 119.529 222.002 131.578 204.517M142.747 186.187C154.429 171.565 163.592 153.901 174.292 140.863M143.391 187.153C153.523 171.478 163.676 155.008 173.327 140.573M179.277 132.826C188.762 118.451 199.598 102.99 204.098 94.38M179.085 133.683C185.549 123.613 191.549 113.516 204.265 94.457M84.763 278.126C101.428 255.033 116.009 231.609 131.068 208.465M84.958 277.695C96.529 259.326 109.812 240.017 131.716 207.311M146.119 187.891C154.859 171.316 165.246 157.166 175.434 139.513M145.781 187.412C155.318 171.909 165.309 157.306 176.592 140.322M179.246 137.062C186.011 126.279 192.182 116.944 205.916 93.709M178.483 137.447C184.484 128.573 190.075 119.527 206.737 94.77M84.823 281.783C94.136 266.714 105.678 250.438 130.828 211.819M84.756 280.92C100.963 257.382 116.774 233.58 131.787 211.719M148.815 186.603C158.549 168.832 169.621 153.801 177.991 140.309M148.467 186.177C159.885 168.98 170.818 152.212 178.816 140.153M179.032 139.622C189.575 125.341 199.419 110.345 209.664 94.998M178.065 140.277C184.518 131.546 190.935 121.947 208.705 94.75M84 284.371C99.273 263.305 113.359 243.486 130.497 214.01M85.024 285.075C103.201 256.395 122.13 228.886 131.007 214.742M150.839 185.691C159 172.765 168.05 159.196 179.409 143.926M149.899 186.125C159.987 171.994 169.802 156.601 178.37 144.212M179.785 140.687C193.847 122.611 206.431 102.702 211.4 93.381M180.823 140.442C192.098 123.967 203.183 107.779 211.544 94.68M84.833 287.566C97.42 270.266 109.375 250.169 130.971 218.116M84.586 287.978C98.843 266.685 113.611 245.964 130.848 218.318M151.641 186.907C159.575 176.607 165.971 165.461 179.064 147.19M152.838 187.113C160.439 174.914 167.384 163.773 178.489 147.616M182.331 141.532C188.777 130.958 195.752 120.791 214.662 94.272M183.234 141.426C191.914 127.351 200.487 114.423 214.323 94.246M84.788 291.318C98.833 271.657 112.82 250.22 131.055 222.354M84.925 292.187C100.701 267.661 117.103 242.642 130.925 222.015M156.045 186.808C163.349 174.853 169.467 163.604 177.817 151.545M155.174 185.942C163.44 174.065 171.027 161.584 178.073 151.065M185.13 140.802C196.992 122.677 210.368 103.873 216.127 95.656M185.419 140.099C197.097 122.994 209.49 104.325 215.971 95.126M84.811 294.729C100.969 272.5 116.608 247.278 132.158 225.465M84.551 295.627C101.651 270.902 118.193 245.438 131.456 225.35M157.388 187.256C161.655 180.646 165.346 173.174 178.444 155.062M157.664 187.019C162.072 179.763 166.375 172.099 178.505 154.844M186.973 140.013C197.588 126.409 206.387 111.048 217.462 94.094M187.706 141.022C195.799 128.876 203.294 117.142 217.821 94.671M84.766 298.473C98.613 278.009 112.642 256.148 131.337 227.553M85.008 299.35C97.602 279.835 110.943 260.247 132.037 228.182M158.992 187.461C166.615 176.96 173.849 166.519 177.515 157.761M159.616 186.71C163.963 179.807 169.378 172.331 178.482 158.49M190.28 140.768C200.769 124.67 210.618 109.078 220.062 94.644M189.706 141.349C201.403 124.752 212.18 107.828 221.291 94.802M84.074 303.108C102.827 275.766 119.881 249.655 132.416 231.449M84.265 302.936C101.143 277.517 117.105 253.341 131.552 231.716M162.25 186.18C165.035 182.014 169.431 174.511 178.273 161.478M161.849 186.543C168.231 177.426 174.249 167.519 178.579 162.378M192.954 140.971C199.898 127.953 208.701 115.922 222.67 95.009M192.468 140.148C202.263 125.479 212.325 110.311 222.938 94.778M85.191 304.991C97.955 287.131 109.461 268.326 132.484 235.058M84.623 305.827C95.987 289.261 106.642 272.981 131.8 235.741M164.937 186.312C166.523 181.205 169.76 178.646 178.236 165.943M164.544 186.093C169.94 178.623 174.137 170.88 178.019 166.022M195.04 140.502C203.673 126.114 214.911 111.141 225.626 94.727M194.476 141.132C205.561 123.93 217.222 107.161 225.228 94.696M85.319 309.154C103.11 281.501 122.118 253.822 130.697 239.208M85.158 308.571C94.579 294.354 103.58 281.188 131.682 238.721M167.13 187.082C170.13 180.635 174.39 176.221 178.169 169.917M166.133 186.851C171.019 179.828 175.42 173.446 178.038 169.377M196.71 141.497C204.867 128.96 214.018 116.786 225.65 98.422M197.336 141.103C205.014 127.806 214.178 115.797 224.866 98.783M84.188 312.246C98.934 292.741 111.357 273.249 131.191 242.685M85.485 312.497C101.328 288.369 117.381 263.623 131.655 242.461M168.739 186.527C170.869 182.429 173.783 178.472 178.465 171.919M168.308 186.635C171.541 182.749 174.294 178.542 178.469 172.317M199.247 141.508C204.122 132.722 211.517 123.375 225.196 102.737M198.902 141.536C209.43 126.579 218.521 111.449 225.283 101.53M84.631 316.549C101.441 292.391 116.701 268.277 132.244 247.209M84.883 315.957C93.861 301.804 103.673 288.056 131.651 245.861M170.933 185.964C172.658 184.237 174.65 182.196 178.22 175.146M171.535 186.592C173.233 183.397 174.809 181.131 178.357 175.29M201.76 140.739C209.456 128.242 217.197 118.457 225.69 105.674M201.967 140.999C207.984 131.254 213.795 122.985 225.033 105.799M85.558 319.832C101.228 296.439 115.869 272.621 130.76 249.115M84.751 319.273C95.522 303.669 106.334 287.791 131.19 249.829M173.226 186.769C174.51 184.322 176.212 183.336 178.176 178.908M173.634 186.433C174.563 184.788 175.833 183.382 178.581 179.164M203.797 141.754C210.68 131.937 217.091 122.845 224.48 109.449M204.23 140.614C209.901 132.339 214.901 124.61 225.4 109.306M84.933 323.898C100.607 300.724 116.093 276.323 132.011 253.237M85.303 323.515C94.028 309.016 104.306 294.369 131.842 253.625M175.933 186.641C176.869 185.521 177.389 183.851 178.548 182.797M175.704 186.726C176.418 185.848 176.992 184.84 178.595 182.722M206.882 140.065C210.564 134.291 215.376 129.058 224.981 113.693M206.283 141.422C213.281 130.533 220.626 120.537 225.492 113.189M84.724 326.863C102.132 302.377 116.895 277.977 131.342 256.206M85.64 326.122C100.794 302.521 116.877 279.621 130.952 256.598M209.2 140.137C215.075 131.828 221.128 121.519 226.142 114.54M208.568 140.553C214.747 131.721 221.128 122.195 225.392 115.473M87.944 325.416C97.859 310.847 108.371 294.664 131.864 260.32M87.809 325.991C101.555 305.331 115.331 284.413 131.131 260.702M211.276 140.423C215.086 134.091 218.484 129.702 225.331 119.1M211.628 140.942C213.893 135.527 217.842 131.467 225.838 119.285M91.18 326.091C100.273 308.842 112.678 292.128 131.901 263.604M90.432 325.947C105.297 302.54 121.401 279.013 131.235 264.602M213.074 141.13C216.773 136.628 218.684 132.42 224.715 122.047M213.567 141.231C218.002 134.15 221.855 128.283 225.404 122.601M92.215 325.841C106.504 303.854 122.536 282.463 131.651 268.261M92.43 326.067C100.612 313.347 108.831 300.417 131.568 267.253M215.287 140.438C219.144 135.502 222.299 129.863 225.251 125.842M216.232 140.386C219.682 135.238 222.698 130.593 225.177 126.547M95.555 327.055C103.791 313.589 112.731 299.021 131.816 270.302M94.986 325.953C107.424 307.656 120.029 288.658 131.672 270.83M218.481 140.666C219.076 138.266 221.689 136.895 225.724 129.641M218.025 140.917C220.192 137.989 221.519 135.59 225.59 129.488M97.727 325.96C109.78 308.298 119.918 291.572 131.041 273.258M96.882 325.391C106.781 310.85 117.037 296.217 131.725 274.17M220.019 140.723C221.202 139.007 222.181 137.591 224.949 133.383M220.558 140.676C222.119 138.276 223.698 135.9 225.422 133.565M99.008 325.433C106.595 313.284 115.928 301.934 131.006 277.791M99.719 325.443C110.47 310.058 120.49 294.29 131.999 277.141M222.404 141.153C223.562 139.665 224.321 138.243 225.125 137.196M222.605 141.135C223.391 139.95 224.232 138.463 225.307 137.051M101.067 326.761C110.734 312.677 118.715 300.16 132.3 282.126M101.419 326.192C111.956 310.5 123.366 294.48 131.81 281.362M104.359 326.295C109.679 316.255 115.73 308.162 132.439 285.31M104.512 325.85C112.384 314.201 119.324 302.91 131.252 284.506M107.039 326.648C114.532 314.831 122.025 302.972 130.568 287.795M106.621 326.162C114.314 314.066 122.062 302.774 131.771 287.995M108.604 325.624C113.677 317.035 119.554 309.487 130.796 290.998M108.888 325.775C117.231 312.698 126.014 299.627 131.038 291.907M109.951 325.405C115.375 317.397 122.047 309.267 131.941 296.463M110.648 326.381C116.073 318.499 121.771 310.028 131.759 295.528M113.315 325.944C118.665 318.367 122.909 311.602 132.227 299.105M113.294 325.331C119.005 318.473 123.525 311.317 131.261 298.806M115.631 325.152C119.648 322.041 122.011 316.679 131.633 301.916M115.577 325.853C120.573 318.634 125.97 310.536 131.616 302.469M117.796 326.672C119.818 321.854 124.17 317.48 131.98 306.842M118.327 326.341C122.202 320.19 126.868 313.955 131.542 306.105M120.715 325.555C123.537 323.127 124.384 318.264 131.333 310.717M120.707 325.17C124.193 320.598 127.646 315.816 131.521 309.866M122.872 325.552C126.985 320.17 128.962 316.256 130.694 312.735M122.984 325.642C125.475 321.78 127.904 318.444 131.127 313.244M124.633 326.339C126.928 323.238 129.399 319.881 130.981 316.84M124.967 325.972C126.765 323.268 128.456 321.049 131.452 317.081M127.958 325.301C128.638 323.77 129.782 322.029 131.722 319.87M127.954 325.364C128.98 323.42 130.313 321.603 131.708 319.731M129.855 325.693C130.627 325.084 130.955 324.238 131.679 323.111M129.987 325.695C130.34 325.232 130.725 324.582 131.648 323.261M132.229 329.493C132.576 328.521 133.273 327.615 134.521 326.103M132.032 329.499C132.777 328.474 133.371 327.638 134.343 326.18M132.318 332.988C133.302 331.981 133.959 330.237 136.734 326.176M132.057 332.977C133.091 331.766 133.832 330.405 136.588 326.403M131.916 336.894C135.026 332.339 137.818 328.574 139.091 325.404M132.25 336.531C134.712 332.874 136.961 328.827 139.527 326.04M132.143 340.763C133.356 337.757 136.697 333.753 141.436 326.924M131.837 340.068C135.447 334.698 139.311 329.093 141.099 326.55M132.882 344.05C134.838 339.063 138.838 334.269 143.583 326.85M131.545 343.486C135.516 338.652 138.591 333.464 143.482 326.464M132.613 348.105C135.218 341.981 139.556 334.945 146.415 325.865M132.303 347.858C136.55 339.943 141.369 333.232 146.646 325.553M132.584 351.502C135.125 345.682 140.659 338.313 149.005 326.824M131.824 350.533C136.244 344.566 141.005 338.068 148.409 326.218M132.614 354.524C138.174 343.666 144.283 334.394 150.028 326.499M131.428 355.022C136.253 349.031 139.989 343.201 150.745 326.499M133.321 356.846C139.479 345.656 148.049 334.182 154.024 324.887M132.689 356.886C140.098 345.761 147.062 335.396 153.216 325.805M131.636 361.535C141.569 348.623 148.692 336.29 155.324 326.753M132.519 360.848C138.341 352.213 144.519 343.507 155.793 326.182M132.258 365.136C140.143 353.716 145.383 343.267 157.907 326.001M132.627 364.459C139.587 354.108 145.974 344.23 157.277 325.765M132.408 367.711C142.182 352.747 153.798 335.424 159.326 326.348M132.313 368.108C139.28 357.682 145.922 346.802 160.229 326.273M132.037 372.482C139.945 358.15 149.8 345.638 162.791 325.203M131.107 372.607C140.539 359.513 149.421 345.749 162.235 325.57M134.155 371.239C142.895 358.27 152.608 343.74 164.608 325.924M134.72 371.52C145.754 354.111 157.42 336.407 164.556 326.079M135.856 371.903C144.021 362.556 149.238 351.611 166.513 325.53M136.491 372.467C145.075 359.287 153.509 346.418 167.065 326.604M138.132 371.74C149.234 357.905 158.12 344.284 170.083 324.858M138.894 372.73C149.253 355.76 160.241 339.116 169.532 326.201M141.311 371.985C150.365 359.993 158.901 346.512 171.489 326.9M140.41 372.361C147.744 362.888 153.986 353.562 172.042 325.544M142.959 372.126C151.452 358.189 160.549 345.035 173.837 326.048M143.311 371.9C153.604 357.539 162.202 343.737 174.044 325.831M145.603 371.671C155.165 357.174 164.404 344.56 177.026 327.292M145.824 372.084C151.912 362.384 158.113 353.038 176.639 326.506M147.148 373.229C160.791 353.956 171.654 337.13 179.365 326.642M148.229 372.354C157.54 358.135 166.89 343.658 178.828 325.917M151.653 371.104C158.974 360.033 166.849 348.744 179.515 329.027M151.085 372.145C161.202 356.027 171.649 340.969 179.335 329.564M152.098 371.202C159.829 361.014 168.836 348.388 178.589 333.224M152.847 372.531C160.028 362.115 167.119 350.796 178.701 333.399M154.81 371.964C161.074 364.63 166.23 355.749 178.601 337.478M155.173 372.444C162.497 361.226 170.382 349.236 178.943 336.726M157.12 371.568C164.522 362.382 171.281 352.385 178.247 340.544M158.067 371.41C163.832 362.284 170.195 352.762 179.149 339.827M159.251 371.328C163.044 366.056 168.088 360.832 178.214 343.349M159.843 372.452C167.217 361.333 174.401 349.795 178.403 343.7M162.365 373.192C167.264 363.48 173.144 354.514 177.905 348.251M162.281 372.613C165.105 366.751 168.893 362.268 178.614 347.578M164.414 372.597C169.297 366.634 172.425 359.847 178.099 350.346M164.031 372.414C167.977 366.026 172.47 359.812 178.863 351.232M166.555 372.01C169.223 368.674 173.199 363.615 177.829 354.134M166.701 371.63C169.955 367.64 172.264 364.245 178.178 354.868M169.186 371.641C172.847 366.346 177.06 360.436 179.302 358.883M169.461 372.615C172.077 368.557 173.794 364.911 178.308 358.084M171.529 371.925C174.012 368.343 175.552 365.523 178.603 361.081M171.521 372.782C172.961 370.442 174.4 367.866 178.249 361.502M173.897 372.111C175.225 369.459 177.09 367.5 178.352 364.992M173.923 371.791C175.387 369.933 176.865 367.764 178.667 365.431M176.05 372.037C176.661 371.281 177.539 370.148 178.507 368.894M176.155 372.179C176.789 371.233 177.452 370.501 178.419 368.848M178.518 376.138C179.326 374.825 179.723 373.535 180.763 372.72M178.282 375.971C179.026 375.05 179.812 373.865 180.497 372.594M178.607 379.49C179.843 376.514 182.259 374.118 183.275 371.654M178.457 379.552C180.115 376.602 182.018 373.87 183.421 372.131M178.065 382.544C180.266 379.448 183.493 376.084 184.876 372.641M178.318 383.185C180.341 379.652 183.154 376.242 185.662 372.059M178.756 386.041C182.651 382.026 185.406 375.499 188.075 372.709M178.063 386.853C181.468 381.175 185.009 375.923 187.774 372.552M179.527 390.052C180.84 385.515 183.072 381.529 190.783 371.067M178.805 388.992C181.837 384.611 185.507 379.204 190.827 372.261M179.048 394.013C183.112 385.859 186.931 380.121 192.824 371.78M179.12 392.876C184.139 385.497 189.434 377.758 192.2 372.409M179.163 397.149C182.049 390.848 185.704 386.23 194.431 371.578M178.337 396.654C185.243 387.007 191.869 377.311 194.941 372.136M178.164 400.925C185.236 390.664 190.755 380.238 196.607 371.206M178.57 400.213C183.793 392.251 188.966 384.172 197.48 371.725M179.297 404.509C183.86 395.337 189.376 389.412 199.825 371.946M178.559 403.667C185.068 393.383 191.831 382.787 199.793 371.814M178.328 407.98C184.197 397.694 191.185 388.3 201.055 372.226M178.875 407.454C184.782 396.889 191.471 387.646 202.265 372.537M178.126 410.92C184.137 402.004 190.133 391.799 204.467 371.926M178.108 410.913C185.049 402.018 191.293 392.608 203.788 372.501M178.745 413.928C184.15 405.536 191.315 395.548 205.785 372.34M178.264 414.355C187.741 400.159 197.434 385.432 206.74 372.526M179.217 417.7C188.941 401.584 199.921 385.706 209.309 372.112M177.991 418.5C188.762 401.378 200.286 385.223 208.988 372.542M180.583 419.155C193.135 400.015 205.094 381.628 211.147 372.863M180.454 418.599C187.839 407.579 194.128 397.351 211.108 372.908M183.24 419.261C193.564 402.071 204.622 385.283 213.383 372.296M182.25 418.693C191.055 405.719 199.486 392.917 214.072 371.609M185.514 418.167C191.327 408.271 198.899 398.054 215.231 372.659M185.421 417.607C191.479 408.943 197.554 398.94 216.136 372.495M187.219 417.309C196.549 406.072 205.204 391.223 217.357 372.491M187.381 418.341C196.772 405.177 205.104 390.933 218.335 372.616M189.031 418.986C199.816 403.235 209.733 388.027 221.578 372.617M190.165 418.77C199.594 404.03 209.187 389.248 220.623 372.164M191.16 419.548C199.819 404.737 209.082 391.756 223.755 372.399M191.892 419.077C200.222 405.981 208.447 393.792 223.404 371.997M195.121 418.245C204.853 401.673 215.922 384.775 224.297 372.708M194.802 418.377C204.644 403.086 214.037 388.922 224.999 372.131M197.636 418.664C205.717 404.072 215.065 392.296 225.148 376.653M197.325 418.724C202.554 409.062 208.87 400.956 225.278 375.9M198.428 418.199C209.821 404.313 218.426 389.053 225.093 380.397M198.751 418.9C208.904 404.896 218.16 390.497 224.711 379.542M200.9 417.852C209.678 407.113 217.753 394.74 224.33 382.449M201.542 418.497C208.875 407.813 215.061 397.663 224.903 383.093M204.579 417.688C208.517 411.937 213.31 405.548 225.519 387.159M204.121 418.235C209.373 410.824 213.844 403.424 224.641 386.534M205.765 418.824C212.421 409.983 218.175 400.487 225.962 390.896M206.148 418.065C210.847 411.893 215.505 404.475 224.723 389.848M208.585 419.721C212.544 412.772 216.83 404.095 225.092 394.216M208.62 418.505C211.522 413.282 214.944 409.051 224.934 394.162M210.093 418.089C215.814 411.404 221.469 403.503 224.062 397.4M210.701 418.552C215.205 411.281 219.674 405.221 224.559 397.184M213.12 417.525C216.334 414.885 219.586 408.57 224.134 400.812M213.397 418.578C216.097 414.317 218.948 409.768 224.596 401.308M365.061 190.52C365.948 189.292 366.568 188.585 367.136 187.121M365.183 190.427C365.74 189.21 366.479 188.222 367.32 187.037M215.467 418.961C219.295 412.747 223.014 407.314 226.011 404.315M215.737 418.268C218.087 414.516 221.007 410.846 225.303 403.338M364.687 193.878C366.512 190.816 368.948 188.481 370.481 186.12M365.035 194.092C366.396 191.519 368.168 189.652 370.198 186.401M217.768 417.67C219.556 415.353 221.395 412.378 225.972 407.289M218.421 417.822C219.611 415.037 221.456 412.738 225.647 407.194M365.476 196.949C367.232 195.032 368.673 191.426 371.995 186.912M365.121 197.298C366.752 194.617 369.258 191.475 372.379 186.764M220.504 417.982C221.812 416.048 223.231 414.191 225.115 410.766M220.343 418.527C221.738 415.874 223.366 413.994 225.408 410.996M364.261 200.722C368.038 196.491 372.082 191.863 374.859 187.515M364.725 201.224C368.282 196.952 370.496 192.847 374.377 186.853M222.615 418.394C223.137 417.389 224.135 416.23 225.127 414.391M222.577 418.681C223.471 417.135 224.316 415.847 225.179 414.353M365.673 202.96C369.29 197.954 372.512 193.609 378.005 186.58M365.668 203.855C368.555 199.37 371.835 194.529 376.928 185.967M365.118 208.166C368.41 201.723 373.54 195.646 380.014 185.641M365.572 207.011C369.603 201.313 373.475 194.342 379.66 186.683M366.182 211.535C368.971 205.985 372.092 201.023 380.656 186.119M365.151 211C370.764 202.418 376.733 194.329 381.321 186.445M365.997 215.382C370.794 205.748 377.195 198.296 384.574 186.086M365.839 214.636C371.194 205.428 377.202 196.801 384.274 185.952M365.804 217.608C371.54 207.284 377.861 197.138 387.316 185.751M365.125 218.212C372.388 208.205 378.685 198.015 385.889 186.216M366.035 220.934C370.842 213.19 376.618 202.778 387.568 186.134M365.242 222.018C374.261 207.902 384.1 193.705 388.589 186.78M365.811 224.783C373.214 213.14 380.772 200.76 391.101 186.21M364.904 225.227C372.956 213.028 381.225 201.769 391.119 187.081M364.212 228.954C372.294 218.463 379.461 207.469 392.953 185.558M365.386 228.943C373.73 215.781 382.736 201.874 393.397 186.304M364.814 232.023C372.51 219.485 380.801 208.152 394.765 185.909M364.922 232.706C375.24 217.369 385.523 201.88 395.127 186.216M365.409 237.008C375.108 221.023 383.992 207.521 397.89 186.791M364.989 236.374C376.983 217.575 389.355 198.558 397.555 187.395M364.893 240.169C379.4 218.957 392.248 197.977 400.638 186.232M365.082 240.091C375.769 223.338 386.671 206.048 400.912 186.584M364.4 243.59C374.937 228.388 383.06 215.357 403.244 187.432M365.273 242.794C373.461 230.771 382.319 217.975 402.418 186.437M365.075 246.901C373.874 234.016 382.205 221.371 404.082 186.565M365.863 245.793C376.372 230.151 387.145 213.624 405.277 187.091M364.923 249.849C377.697 231.902 388.693 213.701 406.633 185.406M365.083 249.387C381.179 225.113 397.118 201.057 407.225 186.366M365.756 254.068C377.15 235.283 389.316 216.328 408.845 186.696M365.645 253.028C379.81 232.498 392.819 211.745 409.39 186.387M365.028 256.764C375.273 241.883 386.223 225.188 412.684 186.736M365.857 256.85C377.061 239.345 388.2 222.254 411.532 186.73M364.584 259.668C379.386 237.836 394.724 216.714 411.806 190.945M365.263 260.425C377.463 241.981 389.427 224.45 412.058 190.677M365.205 264.642C376.94 246.461 386.455 230.656 412.806 193.547M364.946 263.643C379.083 243.204 392.6 223.411 412.084 193.601M366.176 267.157C376.841 250.923 385.758 234.676 411.776 198.037M364.845 267.305C379.909 245.68 393.772 224.555 411.606 197.437M366.176 270.205C377.937 253.129 388.454 236.997 411.378 202.027M365.365 271.189C374.541 256.378 384.648 242.362 411.74 200.556M364.295 274.802C374.289 259.247 385.385 245.202 411.243 203.707M364.922 274.776C377.972 255.445 390.14 236.745 411.537 204.982M365.235 278.95C375.063 262.51 385.954 245.704 411.998 208.603M365.023 278.534C381.273 253.376 397.843 227.931 411.735 208.558M365.318 281.011C376.551 264.423 386.731 248.429 410.949 211.352M364.906 282.062C379.13 260.265 394.33 238.445 411.558 212.239M365.452 284.504C379.639 264.215 394.237 241.775 411.222 214.815M365.458 285.605C380.512 263.491 395.152 241.192 411.46 215.455M364.846 289.79C377.402 270.95 388.66 252.193 412.633 218.151M365.011 289.164C379.48 267.665 393.122 246.712 412.082 218.37M364.96 292.158C375.982 277.331 384.57 262.951 411.556 221.812M365.699 291.346C376.629 274.716 387.722 259.144 411.98 221.256M364.688 295.606C384.354 267.538 401.329 240.667 411.422 225.255M365.72 295.562C375.413 280.656 384.766 265.563 412.083 225.343M364.756 297.748C376.476 282.434 386.223 265.673 411.478 229.776M365.7 298.271C375.435 283.698 384.872 269.079 411.746 229.135M364.717 301.73C381.12 279.243 394.908 256.169 411.657 232.834M365.756 302.297C378.569 282.894 391.412 262.792 411.95 232.304M365.388 305.183C381.354 281.294 397.853 259.399 411.879 235.094M364.954 306.172C383.233 279.851 400.555 252.878 412.29 235.953M365.421 308.843C376.863 292.239 387.229 274.569 411.154 238.701M365.066 309.446C382.818 283.944 400.109 257.92 412.015 239.516M365.769 312.783C382.768 285.926 399.936 259.603 410.994 243.771M365.226 313.107C374.4 298.367 384.656 283.804 411.377 242.724M365.945 316.222C382.594 292.547 397.105 267.96 411.81 246.958M365.125 316.542C377.361 298.457 389.25 280.737 411.773 246.344M364.673 321.066C375.856 303.714 387.564 286.557 412.208 249.988M365.47 319.843C374.753 305.791 383.807 291.709 412.156 250.547M365.409 323.923C380.343 301.557 393.528 281.226 411.117 253.999M365.561 323.54C377.82 304.433 391.178 285.227 411.278 253.905M366.419 327.33C375.617 310.957 385.369 295.835 411.098 257.795M365.605 326.713C378.299 307.514 390.954 288.704 411.796 257.581M369.223 326.697C384.282 301.808 402.081 276.668 411.621 260.121M368.549 326.173C380.036 309.092 391.408 291.24 412.516 260.655M370.953 325.221C381.871 309.954 394.02 291.757 411.874 264.41M370.406 326.427C386.856 302.298 403.006 278.185 412.007 264.104M372.696 325.446C382.853 312.27 392.937 296.877 412.251 267.205M373.048 326.03C386.731 305.517 400.324 284.675 412.339 267.74M375.876 326.198C384.564 312.346 392.618 300.066 411.179 271.032M375.386 326.093C386.535 309.696 397.28 293.293 411.632 271.236M377.162 326.149C385.446 312.392 395.13 300.49 411.983 274.56M377.679 326.3C390.359 307.596 401.975 290.056 412.173 274.323M379.086 325.896C387.283 315.753 394.98 304.033 411.613 277.239M379.555 326.525C386.765 315.776 394.509 304.599 412.159 278.335M383.16 325.574C389.443 315.044 397.407 302.218 412.702 280.851M382.484 325.852C393.336 309.952 403.762 294.627 411.6 281.476M385.234 326.064C395.6 311.255 404.475 294.641 411.946 284.274M385.167 325.905C395.756 309.592 405.804 293.951 411.813 285.284M387.472 326.895C394.263 315.882 402.276 303.558 411.025 289.421M387.216 326.219C392.956 317.223 398.483 309.116 411.734 288.893M388.841 326.916C392.991 318.97 398.424 312.74 412.292 292.309M389.152 326.283C394.774 317.003 401.278 308.475 411.532 292.78M392.655 325.87C396.448 316.714 402.894 308.361 410.838 296.731M391.942 326.324C396.683 318.742 402.493 310.551 411.354 295.759M393.952 327.022C401.304 316.042 407.357 306.119 411.184 298.512M393.491 325.711C398.26 319.567 403.127 313.179 412.071 299.048M395.424 326.086C401.415 319.971 406.02 311.393 411.407 302.594M396.356 326.246C401.657 318.059 407.904 309.462 411.365 303.564M398.405 325.899C401.574 321.552 405.094 316.615 411.492 305.401M398.663 325.895C402.617 319.015 406.806 313.008 411.668 306.114M401.018 326.816C403.135 322.719 406.043 319.179 411.533 308.699M401.147 325.856C403.598 321.523 406.974 317.167 411.833 309.04M402.769 326.572C405.753 321.492 408.832 316.814 411.476 312.493M402.877 326.416C405.269 322.268 408.164 318.507 411.797 313.157M405.876 325.167C408.256 323.349 409.949 319.649 412.144 316.413M405.954 325.698C408.308 321.916 410.829 318.546 412.136 316.732M408.31 325.858C408.797 324.465 409.731 323.528 412.049 320.207M407.951 325.841C409.138 324.371 410.105 322.908 412.074 320.091M410.141 326.129C410.788 325.234 411.422 324.172 412.007 323.564M410.244 326.227C410.832 325.318 411.412 324.409 411.892 323.621" stroke="black" stroke-width="0.511" stroke-linecap="round"/>
<path d="M224.357 417.775C205.243 417.666 187.059 418.525 177.551 418.876M224.049 418.376C209.988 418.038 195.169 418.473 178.155 417.795M176.881 418.675C177.621 404.169 178.304 392.131 178.252 371.276M177.774 418.483C178.011 399.469 177.976 380.697 178.206 371.529M177.281 371.493C191.754 371.623 206.133 372.879 223.385 372.393M177.928 371.531C191.619 371.182 204.918 372.077 224.074 371.401M224.429 372.721C224.143 387.363 224.313 402.971 223.223 417.206M223.805 371.807C224.56 386.211 224.236 399.864 223.726 418.439M177.659 371.083C159.34 372.416 141.407 371.282 130.252 370.984M177.444 371.729C167.111 372.292 156.882 372.183 131.18 372.203M130.715 371.544C131.057 355.007 132.068 340.93 131.468 326.457M130.791 372.145C130.571 355.1 131.182 339.724 130.886 325.784M131.728 326.459C148.401 324.657 166.292 325.658 176.623 326.191M130.8 325.874C146.483 325.23 161.626 325.738 177.391 325.453M177.361 324.843C177.471 341.533 178.624 357.293 178.096 371.452M177.456 325.05C177.022 338.705 177.127 353.219 177.944 371.848M130.698 325.698C121.974 324.745 111.287 325.111 84.0149 325.329M131.088 325.822C120.27 325.009 109.695 325.715 84.6439 325.658M85.7829 325.664C85.7139 282.347 84.1159 237.217 85.3089 185.675M84.6849 325.904C85.6209 289.899 84.7799 254.136 85.2959 186.71M84.4989 185.936C98.3519 186.186 113.536 187.223 131.535 187.288M84.8989 186.293C96.6499 186.63 108.247 186.659 131.086 186.613M131.918 185.514C130.84 218.977 130.031 250.822 130.596 325.75M130.96 186.873C131.158 230.852 131.366 274.737 130.816 325.178M412.157 326.331C393.914 325.734 375.314 326.288 364.631 325.518M411.327 325.131C393.705 325.569 375.823 326.07 365.055 325.155M365.576 324.56C365.817 274.007 365.916 223.813 365.546 186.877M365.231 325.615C364.687 271.491 365.426 217.889 364.565 186.862M365.755 185.912C376.258 187.152 388.148 186.027 411.931 186.893M365.24 186.155C376.153 186.583 387.317 186.329 410.892 186.419M411.167 187.215C411.985 215.928 411.335 243.891 412.028 325.193M411.637 186.963C411.923 233.279 411.328 280.623 411.616 325.688M178.34 185.795C160.704 187.087 143.792 186.301 131.774 187.392M177.729 186.254C167.79 186.342 156.705 186.157 131.596 185.983M131.092 185.945C131.071 177.494 131.643 167.766 131.825 140.146M131.327 186.966C131.225 175.542 131.079 164.914 131.584 140.603M131.953 140.841C144.724 139.812 158.24 140.974 178.469 140.124M130.685 140.575C147.152 140.365 162.348 140.253 177.501 140.157M178.212 139.627C177.401 158.88 176.558 177.297 177.691 187.358M177.877 140.25C177.699 153.114 177.659 165.778 177.208 186.312M223.581 140.921C207.886 140.946 193.12 139.882 176.786 140.821M224.248 139.738C206.649 139.662 188.291 139.842 177.962 140.011M178.171 140.079C176.598 129.603 177.009 120.143 177.018 93.936M177.128 139.744C177.687 123.538 177.678 107.235 177.17 93.579M176.713 93.392C195.003 93.936 213.571 93.483 223.689 93M177.423 94.072C191.369 93.344 206.464 93.871 224.287 93.455M223.452 93.31C223.206 109.159 224.319 124.618 224.661 139.814M224.083 93.93C223.484 105.9 224.131 117.679 223.988 139.829" stroke="black" stroke-linecap="round"/>
</svg>
